# xmcd
#
# Track frame offsets: 
#        182
#        24715
#        36070
#        53725
#        74035
#        88055
#        98537
#        115247
#        125775
#        152820
#        163362
#
# Disc length: 2491 seconds
#
# Revision: 3
# Processed by: cddbd v1.5.1PL2 Copyright (c) Steve Scherf et al.
# Submitted via: ExactAudioCopy v0.95b3
#
DISCID=9909b90b
DTITLE=Hana Hegerova - Recital 2
DYEAR=1974
DGENRE=Chanson
TTITLE0=Penzion na predmesti
TTITLE1=Tak to na tom svete chodi
TTITLE2=Svatebni pisen
TTITLE3=Maestro tango (Mister Giorgina)
TTITLE4=Ramusy blues
TTITLE5=Vana
TTITLE6=Boze muj, ja chci zpet (Ma jeunesse fout l' camp)
TTITLE7=Budto ty, anebo ja (Girofle Girofla)
TTITLE8=Surabaya Johnny
TTITLE9=Rymovani o zivote (It Hurts to Say Goodbye)
TTITLE10=Rozvod
EXTD=
EXTT0=
EXTT1=
EXTT2=
EXTT3=
EXTT4=
EXTT5=
EXTT6=
EXTT7=
EXTT8=
EXTT9=
EXTT10=
PLAYORDER=
